<svg width="24" height="24" viewBox="0 0 24 24" fill="none" xmlns="http://www.w3.org/2000/svg">
<path d="M3.87097 5C3.38831 5 3 5.38582 3 5.86538V7.59615C3 8.07572 3.38831 8.46154 3.87097 8.46154H5.6129C6.09556 8.46154 6.48387 8.07572 6.48387 7.59615V5.86538C6.48387 5.38582 6.09556 5 5.6129 5H3.87097ZM9.3871 5.57692C8.74476 5.57692 8.22581 6.09255 8.22581 6.73077C8.22581 7.36899 8.74476 7.88462 9.3871 7.88462H19.8387C20.481 7.88462 21 7.36899 21 6.73077C21 6.09255 20.481 5.57692 19.8387 5.57692H9.3871ZM9.3871 11.3462C8.74476 11.3462 8.22581 11.8618 8.22581 12.5C8.22581 13.1382 8.74476 13.6538 9.3871 13.6538H19.8387C20.481 13.6538 21 13.1382 21 12.5C21 11.8618 20.481 11.3462 19.8387 11.3462H9.3871ZM9.3871 17.1154C8.74476 17.1154 8.22581 17.631 8.22581 18.2692C8.22581 18.9075 8.74476 19.4231 9.3871 19.4231H19.8387C20.481 19.4231 21 18.9075 21 18.2692C21 17.631 20.481 17.1154 19.8387 17.1154H9.3871ZM3 11.6346V13.3654C3 13.845 3.38831 14.2308 3.87097 14.2308H5.6129C6.09556 14.2308 6.48387 13.845 6.48387 13.3654V11.6346C6.48387 11.155 6.09556 10.7692 5.6129 10.7692H3.87097C3.38831 10.7692 3 11.155 3 11.6346ZM3.87097 16.5385C3.38831 16.5385 3 16.9243 3 17.4038V19.1346C3 19.6142 3.38831 20 3.87097 20H5.6129C6.09556 20 6.48387 19.6142 6.48387 19.1346V17.4038C6.48387 16.9243 6.09556 16.5385 5.6129 16.5385H3.87097Z" fill="#758382"/>
</svg>
