<svg width="28" height="28" viewBox="0 0 28 28" fill="none" xmlns="http://www.w3.org/2000/svg">
<path d="M14 20.352C15.933 20.352 17.5 18.6109 17.5 16.4631C17.5 14.3153 15.933 12.5742 14 12.5742C12.067 12.5742 10.5 14.3153 10.5 16.4631C10.5 18.6109 12.067 20.352 14 20.352Z" stroke="white" stroke-width="1.5"/>
<path d="M11.4103 25.6667H16.5949C20.2361 25.6667 22.0573 25.6667 23.3651 24.8092C23.9296 24.4396 24.4156 23.9623 24.7954 23.4046C25.6693 22.1213 25.6693 20.3328 25.6693 16.7581C25.6693 13.1834 25.6693 11.395 24.7954 10.1116C24.4156 9.55395 23.9296 9.07663 23.3651 8.70696C22.5251 8.15513 21.4728 7.95796 19.8616 7.88796C19.0928 7.88796 18.4313 7.3163 18.2808 6.57546C18.1658 6.03281 17.8669 5.54651 17.4348 5.19874C17.0026 4.85098 16.4636 4.66308 15.9089 4.6668H12.0963C10.9436 4.6668 9.95077 5.46597 9.72444 6.57546C9.57394 7.3163 8.91244 7.88796 8.1436 7.88796C6.5336 7.95796 5.48127 8.15629 4.6401 8.70696C4.07606 9.07675 3.59042 9.55406 3.21094 10.1116C2.33594 11.395 2.33594 13.1823 2.33594 16.7581C2.33594 20.3339 2.33594 22.1201 3.20977 23.4046C3.58777 23.9599 4.0731 24.4371 4.6401 24.8092C5.94794 25.6667 7.7691 25.6667 11.4103 25.6667Z" stroke="white" stroke-width="1.5"/>
<path d="M22.1667 12.5742H21" stroke="white" stroke-width="1.5" stroke-linecap="round"/>
</svg>
