<svg width="24" height="24" viewBox="0 0 24 24" fill="none" xmlns="http://www.w3.org/2000/svg">
<path d="M16.7813 18.612L20.4712 16.765L7.23625 10.158L3.54125 12L16.7762 18.612H16.7813ZM12.0013 21L15.7073 19.152L7.23725 14.917L3.55725 16.765L12.0013 21ZM20.4612 12L16.7662 13.842L13.0813 12L16.7713 10.158L20.4612 12ZM8.30125 4.853L12.0052 3L15.7053 4.853L12.0013 6.695L8.30125 4.848V4.853ZM7.22125 5.388L3.53125 7.235L12.0013 11.465L15.6912 9.623L7.22125 5.393V5.388ZM16.7662 9.088L20.4662 7.235L16.7762 5.398L13.0703 7.246L16.7662 9.088Z" fill="#758382"/>
</svg>
