<svg width="20" height="12" viewBox="0 0 20 12" fill="none" xmlns="http://www.w3.org/2000/svg">
<path d="M6.25 6.25V5.25H13.25V6.25H6.25ZM13.75 0.25C15.2087 0.25 16.6076 0.829462 17.6391 1.86091C18.6705 2.89236 19.25 4.29131 19.25 5.75C19.25 7.20869 18.6705 8.60764 17.6391 9.63909C16.6076 10.6705 15.2087 11.25 13.75 11.25H11.25V10.25H13.75C16.25 10.25 18.25 8.25 18.25 5.75C18.25 3.25 16.25 1.25 13.75 1.25H11.25V0.25H13.75ZM5.75 11.25C4.29131 11.25 2.89236 10.6705 1.86091 9.63909C0.829463 8.60764 0.25 7.20869 0.25 5.75C0.25 4.29131 0.829463 2.89236 1.86091 1.86091C2.89236 0.829462 4.29131 0.25 5.75 0.25H8.25V1.25H5.75C3.25 1.25 1.25 3.25 1.25 5.75C1.25 8.25 3.25 10.25 5.75 10.25H8.25V11.25H5.75Z" fill="#758382" stroke="#758382" stroke-width="0.5"/>
</svg>
