<svg width="24" height="24" viewBox="0 0 24 24" fill="none" xmlns="http://www.w3.org/2000/svg">
<path d="M5.98975 4.92902C6.1302 5.06964 6.20909 5.26027 6.20909 5.45902C6.20909 5.65777 6.1302 5.84839 5.98975 5.98902C5.20042 6.77832 4.5743 7.71536 4.14711 8.74665C3.71993 9.77793 3.50007 10.8833 3.50007 11.9995C3.50007 13.1158 3.71993 14.2211 4.14711 15.2524C4.5743 16.2837 5.20042 17.2207 5.98975 18.01C6.1263 18.1515 6.20181 18.341 6.20001 18.5377C6.19821 18.7343 6.11924 18.9224 5.98012 19.0614C5.841 19.2004 5.65285 19.2792 5.4562 19.2808C5.25955 19.2824 5.07014 19.2067 4.92875 19.07C1.02375 15.165 1.02375 8.83402 4.92875 4.92902C5.06938 4.78857 5.26 4.70968 5.45875 4.70968C5.6575 4.70968 5.84912 4.78857 5.98975 4.92902ZM19.0697 4.92902C22.9748 8.83402 22.9748 15.166 19.0697 19.071C18.9276 19.2035 18.7395 19.2756 18.5452 19.2722C18.3509 19.2688 18.1655 19.1901 18.0281 19.0526C17.8907 18.9152 17.812 18.7298 17.8086 18.5355C17.8051 18.3412 17.8773 18.1532 18.0098 18.011C18.7992 17.2217 19.4255 16.2846 19.8528 15.2532C20.28 14.2218 20.4999 13.1164 20.4999 12C20.4999 10.8836 20.28 9.7782 19.8528 8.74682C19.4255 7.71544 18.7992 6.77834 18.0098 5.98902C17.9361 5.92035 17.877 5.83755 17.836 5.74555C17.795 5.65355 17.7729 5.55424 17.7712 5.45354C17.7694 5.35284 17.7879 5.25281 17.8256 5.15942C17.8633 5.06603 17.9195 4.9812 17.9907 4.90998C18.0619 4.83876 18.1468 4.78261 18.2402 4.74489C18.3335 4.70717 18.4336 4.68865 18.5343 4.69042C18.635 4.6922 18.7343 4.71424 18.8263 4.75524C18.9183 4.79623 19.0011 4.85533 19.0697 4.92902ZM8.81775 7.75702C8.9582 7.89764 9.03709 8.08827 9.03709 8.28702C9.03709 8.48577 8.9582 8.67639 8.81775 8.81702C8.39973 9.2349 8.06813 9.73104 7.84189 10.2771C7.61566 10.8232 7.49921 11.4084 7.49921 11.9995C7.49921 12.5906 7.61566 13.1759 7.84189 13.7219C8.06813 14.268 8.39973 14.7641 8.81775 15.182C8.95023 15.3242 9.02235 15.5122 9.01892 15.7065C9.0155 15.9008 8.93678 16.0862 8.79937 16.2236C8.66196 16.3611 8.47657 16.4398 8.28227 16.4432C8.08797 16.4466 7.89993 16.3745 7.75775 16.242C6.63262 15.1168 6.00053 13.5907 6.00053 11.9995C6.00053 10.4083 6.63262 8.88222 7.75775 7.75702C7.89838 7.61657 8.089 7.53768 8.28775 7.53768C8.4865 7.53768 8.67712 7.61657 8.81775 7.75702ZM16.2428 7.75702C17.3679 8.88222 18 10.4083 18 11.9995C18 13.5907 17.3679 15.1168 16.2428 16.242C16.1736 16.3137 16.0909 16.3709 15.9994 16.4102C15.9079 16.4496 15.8095 16.4703 15.7099 16.4712C15.6103 16.4721 15.5116 16.4532 15.4194 16.4155C15.3272 16.3778 15.2434 16.3222 15.173 16.2518C15.1025 16.1814 15.0468 16.0977 15.009 16.0056C14.9713 15.9134 14.9522 15.8147 14.9531 15.7151C14.9539 15.6155 14.9745 15.5171 15.0138 15.4255C15.0531 15.334 15.1102 15.2512 15.1818 15.182C15.5996 14.7642 15.9311 14.2681 16.1572 13.7221C16.3834 13.1761 16.4998 12.591 16.4998 12C16.4998 11.4091 16.3834 10.8239 16.1572 10.2779C15.9311 9.73196 15.5996 9.23588 15.1818 8.81802C15.0493 8.67584 14.9771 8.48779 14.9806 8.29349C14.984 8.09919 15.0627 7.91381 15.2001 7.77639C15.3375 7.63898 15.5229 7.56027 15.7172 7.55684C15.9115 7.55341 16.0996 7.62554 16.2418 7.75802M11.9998 10.5C12.3976 10.5 12.7791 10.6581 13.0604 10.9394C13.3417 11.2207 13.4998 11.6022 13.4998 12C13.4998 12.3978 13.3417 12.7794 13.0604 13.0607C12.7791 13.342 12.3976 13.5 11.9998 13.5C11.6019 13.5 11.2204 13.342 10.9391 13.0607C10.6578 12.7794 10.4998 12.3978 10.4998 12C10.4998 11.6022 10.6578 11.2207 10.9391 10.9394C11.2204 10.6581 11.6019 10.5 11.9998 10.5Z" fill="#758382"/>
</svg>
