<svg width="700" height="982" viewBox="0 0 700 982" fill="none" xmlns="http://www.w3.org/2000/svg">
<rect width="700" height="982" fill="#B8E6E1" fill-opacity="0.5"/>
<path opacity="0.7296" d="M221.952 358.515H216.437V353H212.515V358.515H207V362.437H212.515V367.952H216.437V362.437H221.952V358.515Z" fill="#A8D7D1"/>
<path opacity="0.7296" d="M316.952 43.515H311.437V38H307.515V43.515H302V47.4369H307.515V52.9519H311.437V47.4369H316.952V43.515Z" fill="#A8D7D1"/>
<path opacity="0.7296" d="M288.952 745.515H283.437V740H279.515V745.515H274V749.437H279.515V754.952H283.437V749.437H288.952V745.515Z" fill="#A8D7D1"/>
<path opacity="0.7296" d="M487.952 803.515H482.437V798H478.515V803.515H473V807.437H478.515V812.952H482.437V807.437H487.952V803.515Z" fill="#A8D7D1"/>
<path opacity="0.7296" d="M221.952 906.515H216.437V901H212.515V906.515H207V910.437H212.515V915.952H216.437V910.437H221.952V906.515Z" fill="#A8D7D1"/>
<path opacity="0.3892" d="M251.76 171.6H248.16V168H245.6V171.6H242V174.16H245.6V177.76H248.16V174.16H251.76V171.6Z" fill="#A8D7D1"/>
<path opacity="0.8813" d="M78.6065 798.56H61.0467V781H48.5597V798.56H31V811.047H48.5597V828.606H61.0467V811.047H78.6065V798.56Z" fill="#A8D7D1"/>
<path opacity="0.7296" d="M603.28 905.842H597.765V900.327H593.843V905.842H588.328V909.764H593.843V915.279H597.765V909.764H603.28V905.842Z" fill="#A8D7D1"/>
<path opacity="0.7594" d="M405.501 145.504H401.996V142H399.504V145.504H396V147.996H399.504V151.501H401.996V147.996H405.501V145.504Z" fill="#A8D7D1"/>
<path opacity="0.7594" d="M638.501 263.504H634.996V260H632.504V263.504H629V265.996H632.504V269.501H634.996V265.996H638.501V263.504Z" fill="#A8D7D1"/>
<path opacity="0.4391" d="M382.699 250.323H371.376V239H363.323V250.323H352V258.376H363.323V269.699H371.376V258.376H382.699V250.323Z" fill="#A8D7D1"/>
<path opacity="0.4391" d="M92.699 116.323H81.3756V105H73.3235V116.323H62V124.376H73.3235V135.699H81.3756V124.376H92.699V116.323Z" fill="#A8D7D1"/>
<path d="M544.699 122.323H533.376V111H525.323V122.323H514V130.376H525.323V141.699H533.376V130.376H544.699V122.323Z" fill="#A8D7D1"/>
<path opacity="0.4391" d="M578.699 694.053H573.646V689H570.053V694.053H565V697.646H570.053V702.699H573.646V697.646H578.699V694.053Z" fill="#A8D7D1"/>
<path opacity="0.7782" d="M538.6 331.541H535.059V328H532.541V331.541H529V334.059H532.541V337.601H535.059V334.059H538.6V331.541Z" fill="#A8D7D1"/>
</svg>
