<svg width="24" height="24" viewBox="0 0 24 24" fill="none" xmlns="http://www.w3.org/2000/svg">
<path d="M8.85003 15.3125C8.78281 15.3125 8.71559 15.3228 8.65147 15.3444C8.28697 15.4678 7.90363 15.5469 7.50003 15.5469C7.09644 15.5469 6.7131 15.4678 6.34832 15.3444C6.28419 15.3228 6.21726 15.3125 6.15004 15.3125C4.4046 15.3125 2.99076 16.7914 3.00005 18.6119C3.00398 19.3812 3.6112 20 4.35004 20H10.65C11.3889 20 11.9961 19.3812 12 18.6119C12.0093 16.7914 10.5955 15.3125 8.85003 15.3125ZM7.50003 14.375C8.99122 14.375 10.2 13.1158 10.2 11.5625C10.2 10.0092 8.99122 8.75 7.50003 8.75C6.00885 8.75 4.80004 10.0092 4.80004 11.5625C4.80004 13.1158 6.00885 14.375 7.50003 14.375ZM19.65 5H8.85003C8.10556 5 7.50003 5.65186 7.50003 6.45283V7.8125C8.15872 7.8125 8.76847 8.01113 9.30003 8.33398V6.875H19.2V15.3125H17.4V13.4375H13.8V15.3125H11.6558C12.193 15.8015 12.5873 16.4472 12.7721 17.1875H19.65C20.3945 17.1875 21 16.5356 21 15.7347V6.45283C21 5.65186 20.3945 5 19.65 5Z" fill="#758382"/>
</svg>
