<svg width="100" height="103" viewBox="0 0 100 103" fill="none" xmlns="http://www.w3.org/2000/svg">
<path d="M81.111 81.0448L81.2079 26.9466L63.904 11.9968L26.814 11.9318C23.0277 11.9253 19.9518 14.9508 19.9453 18.6893L19.8339 80.9373C19.8274 84.6758 22.8916 87.7128 26.6779 87.7193L74.2413 87.802C78.0296 87.8091 81.1045 84.7833 81.111 81.0448Z" fill="#DBDBDB"/>
<path d="M63.8918 20.147C63.8852 23.8855 66.9494 26.9225 70.7361 26.928L81.2101 26.947L63.9062 11.9972L63.8918 20.147Z" fill="#758382"/>
<path d="M45.1677 41.4021C45.1804 40.8577 45.154 40.3167 45.1038 39.7745C45.0778 39.4948 45.016 39.2413 44.9391 38.9789C44.9023 38.5949 44.8732 38.2102 44.8298 37.8272C44.7685 37.5063 44.6341 37.2227 44.4282 36.9751C44.2652 36.6951 44.0402 36.4706 43.7534 36.3006C43.5519 36.2063 43.3491 36.1126 43.1476 36.0182C42.8241 35.9033 42.4962 35.8744 42.1654 35.9331C41.9455 35.9256 41.7378 35.9718 41.5426 36.0709C41.23 36.155 40.9552 36.3114 40.7168 36.5384C40.2526 36.9892 39.8821 37.6108 39.8941 38.2753C39.9039 38.8381 39.9039 39.4021 39.8915 39.9653C39.8855 40.2464 39.8762 40.5275 39.8648 40.8091C39.8591 40.9384 39.8508 41.069 39.846 41.1986C39.825 41.9099 40.1182 42.6074 40.629 43.1035L40.6353 43.1003C40.7568 43.2403 40.8927 43.3682 41.0536 43.4613C41.3884 43.6557 41.7579 43.7714 42.145 43.8032C42.2426 43.811 42.3352 43.7983 42.4288 43.7892C42.4669 43.7918 42.502 43.8038 42.5421 43.8039C43.1859 43.8006 43.8637 43.6197 44.3357 43.161C44.8168 42.6937 45.1526 42.0851 45.1677 41.4021Z" fill="#1E4640"/>
<path d="M62.2849 41.4776C62.2976 40.9332 62.2712 40.3922 62.221 39.85C62.195 39.5703 62.1332 39.3168 62.0563 39.0544C62.0195 38.6704 61.9904 38.2857 61.947 37.9027C61.8857 37.5818 61.7516 37.2973 61.5454 37.0506C61.3824 36.7706 61.1574 36.5461 60.8706 36.3761C60.6688 36.2827 60.4663 36.1881 60.2648 36.0937C59.9413 35.9788 59.6134 35.95 59.2826 36.0086C59.0627 36.0011 58.855 36.0473 58.6598 36.1464C58.3472 36.2306 58.0724 36.3869 57.834 36.6139C57.3698 37.0647 56.9993 37.6863 57.0113 38.3508C57.0211 38.9136 57.0211 39.4776 57.0087 40.0408C57.0026 40.3219 56.9934 40.603 56.982 40.8846C56.9762 41.0139 56.967 41.1442 56.9632 41.2741C56.9422 41.9854 57.2345 42.6826 57.7462 43.179L57.7525 43.1758C57.874 43.3158 58.0099 43.4437 58.1708 43.5368C58.5056 43.7312 58.8751 43.847 59.2622 43.8788C59.3589 43.8862 59.4524 43.8738 59.5469 43.865C59.5854 43.8666 59.6205 43.8787 59.6602 43.8797C60.3041 43.8764 60.9819 43.6955 61.4539 43.2368C61.9331 42.7689 62.2691 42.1594 62.2849 41.4776Z" fill="#1E4640"/>
<path d="M61.439 53.6776C58.5685 51.3496 54.1872 50.7415 50.6078 51.2452C49.0329 51.4665 47.479 51.9733 46.0622 52.6864C44.6895 53.3769 42.9231 54.3415 42.3999 55.8642C42.2061 56.4278 42.7559 57.0256 43.3443 56.8801C44.6654 56.5532 45.7456 55.537 46.9798 54.9821C48.1958 54.435 49.5283 54.0794 50.8604 53.9578C52.3444 53.8225 53.8127 53.9953 55.2281 54.4441C56.7986 54.9414 58.093 55.8027 59.4592 56.6865C60.1817 57.1533 61.0181 56.997 61.6657 56.5132C61.9385 56.3105 62.0547 56.0244 62.1793 55.7252C62.5067 54.9393 62.0267 54.1541 61.439 53.6776Z" fill="#1E4640"/>
</svg>
