<svg width="16" height="16" viewBox="0 0 16 16" fill="none" xmlns="http://www.w3.org/2000/svg">
<path d="M14.75 14.75L11.3722 11.3722M11.3722 11.3722C11.9499 10.7944 12.4083 10.1084 12.721 9.35349C13.0337 8.59856 13.1946 7.78944 13.1946 6.97231C13.1946 6.15519 13.0337 5.34606 12.721 4.59114C12.4083 3.83621 11.9499 3.15027 11.3722 2.57247C10.7944 1.99468 10.1084 1.53635 9.35349 1.22365C8.59856 0.910945 7.78944 0.75 6.97231 0.75C6.15519 0.75 5.34606 0.910945 4.59114 1.22365C3.83621 1.53635 3.15027 1.99468 2.57247 2.57247C1.40556 3.73938 0.75 5.32205 0.75 6.97231C0.75 8.62257 1.40556 10.2052 2.57247 11.3722C3.73938 12.5391 5.32205 13.1946 6.97231 13.1946C8.62257 13.1946 10.2052 12.5391 11.3722 11.3722Z" stroke="#1E4640" stroke-width="1.5" stroke-linecap="round" stroke-linejoin="round"/>
</svg>
