<svg width="390" height="107" viewBox="0 0 390 107" fill="none" xmlns="http://www.w3.org/2000/svg">
<path d="M389.35 55.89H356.481C356.148 55.89 355.87 56.1411 355.835 56.4715L351.443 98.2175L345.827 0.612341C345.807 0.273372 345.53 0.00703835 345.191 0.000214951C344.821 0.00813889 344.564 0.250929 344.532 0.587917L337.722 71.8983L334.425 56.4042C334.361 56.1044 334.097 55.8898 333.79 55.8898H325.632L323.835 41.4887C323.796 41.179 323.543 40.9406 323.231 40.9212C322.927 40.8975 322.639 41.1057 322.561 41.4086L318.861 55.8898H310.774L302.721 19.765C302.653 19.4579 302.369 19.2554 302.06 19.2569C301.746 19.2701 301.486 19.5059 301.444 19.8173L293.144 79.8577L289.636 56.4436C289.589 56.1251 289.315 55.89 288.994 55.89H228.774C228.442 55.89 228.163 56.1411 228.128 56.4715L223.737 98.2168L218.121 0.612341C218.101 0.273372 217.824 0.00703835 217.484 0.000214951C217.094 0.00813889 216.858 0.250929 216.826 0.587917L210.015 71.8983L206.719 56.4042C206.655 56.1044 206.39 55.8898 206.083 55.8898H197.926L196.128 41.4887C196.09 41.179 195.837 40.9406 195.525 40.9212C195.212 40.8979 194.932 41.1061 194.855 41.4086L191.154 55.8898H183.068L175.014 19.765C174.947 19.4579 174.666 19.2554 174.354 19.2569C174.04 19.2701 173.78 19.5059 173.737 19.8173L165.438 79.8571L161.93 56.4434C161.883 56.1249 161.609 55.8898 161.288 55.8898H101.068C100.736 55.8898 100.457 56.1409 100.422 56.4713L96.0305 98.2173L90.4146 0.612126C90.395 0.273157 90.1175 0.0068234 89.7783 0C89.4151 0.00792394 89.1519 0.250701 89.1197 0.587689L82.3091 71.8988L79.0123 56.4039C78.9484 56.1042 78.6837 55.8896 78.3768 55.8896H70.2189L68.4221 41.4884C68.3836 41.1787 68.1305 40.9404 67.8186 40.921C67.5116 40.8972 67.2259 41.1054 67.1484 41.4083L63.4477 55.8896H55.3615L47.3077 19.7647C47.2395 19.4577 46.963 19.2552 46.6474 19.2567C46.3337 19.2699 46.0736 19.5057 46.0306 19.8171L37.7321 79.8568L34.2242 56.4431C34.1766 56.1246 33.9033 55.8896 33.5819 55.8896H0V57.1886H33.0237L37.1166 84.51C37.1642 84.828 37.4375 85.0631 37.7589 85.0631H37.7624C38.0855 85.0613 38.3583 84.8227 38.4021 84.5025L46.8248 23.5643L54.2079 56.6804C54.2737 56.9775 54.537 57.1886 54.8414 57.1886H63.9524C64.2491 57.1886 64.5082 56.9874 64.5821 56.6998L67.5584 45.0527L69.0017 56.6194C69.0418 56.9445 69.3182 57.1886 69.646 57.1886H77.8514L81.9193 76.3045C81.9857 76.6186 82.273 76.8316 82.5917 76.8178C82.9117 76.7991 83.1708 76.5501 83.201 76.2308L89.6059 9.16403L95.1928 106.266C95.2123 106.603 95.4879 106.87 95.826 106.877C95.8313 106.878 95.8368 106.878 95.8416 106.878C96.1729 106.878 96.4527 106.627 96.4874 106.296L101.653 57.1886H160.729L164.823 84.51C164.87 84.8291 165.17 85.0248 165.468 85.0631C165.791 85.0613 166.064 84.8227 166.108 84.5025L174.531 23.5643L181.914 56.6804C181.98 56.9775 182.244 57.1886 182.548 57.1886H191.659C191.955 57.1886 192.215 56.9874 192.288 56.6998L195.265 45.0522L196.709 56.6194C196.749 56.9445 197.025 57.1886 197.353 57.1886H205.558L209.626 76.3045C209.692 76.6186 209.995 76.8316 210.298 76.8178C210.618 76.7991 210.877 76.5501 210.907 76.2308L217.312 9.16448L222.899 106.266C222.919 106.603 223.194 106.869 223.533 106.877C223.538 106.878 223.543 106.878 223.548 106.878C223.88 106.878 224.159 106.627 224.194 106.296L229.36 57.1884H288.436L292.529 84.5097C292.577 84.8289 292.859 85.0246 293.175 85.0629C293.498 85.0611 293.771 84.8225 293.815 84.5022L302.238 23.5641L309.621 56.6802C309.687 56.9773 309.95 57.1884 310.255 57.1884H319.366C319.663 57.1884 319.922 56.9872 319.995 56.6996L322.972 45.0525L324.415 56.6192C324.455 56.9443 324.732 57.1884 325.059 57.1884H333.265L337.332 76.3043C337.398 76.6184 337.692 76.8314 338.004 76.8176C338.325 76.7989 338.583 76.5499 338.614 76.2305L345.019 9.16426L350.605 106.266C350.625 106.603 350.9 106.869 351.238 106.877C351.611 106.919 351.864 106.632 351.9 106.296L357.066 57.1882H389.35C389.709 57.1882 390 56.8977 390 56.5387C390 56.1808 389.709 55.89 389.35 55.89Z" fill="url(#paint0_radial_1247_443)"/>
<g clip-path="url(#clip0_1247_443)">
<rect width="169" height="32" transform="translate(109.5 36.9406)" fill="#D7EEEC"/>
<path d="M119.148 57.2606L119.292 56.3486C118.404 57.7406 117.3 58.6526 115.956 58.6526C111.852 58.6526 111.324 50.8526 113.652 40.7006C113.868 39.8126 116.532 40.5566 116.292 41.8286C114.396 52.0766 114.468 57.1646 116.82 57.1646C117.612 57.1646 119.748 51.4526 120.828 45.9566L121.092 44.5166C121.236 43.6526 121.428 42.7646 121.62 41.9006C121.836 41.0126 124.5 41.7566 124.26 43.0286L121.476 57.7646C121.26 58.8446 121.02 59.8046 120.732 60.6686C121.116 60.8126 121.452 60.9806 121.764 61.1486C123.204 61.9646 122.844 62.6126 122.532 62.5166C121.812 62.3006 121.068 62.0606 120.3 61.8686C118.692 65.8046 116.196 67.3646 113.484 67.2206C111.228 67.1006 109.38 65.2286 109.668 63.0446C110.148 59.6366 114.828 59.2286 118.572 60.0206C118.788 59.1806 118.98 58.2686 119.148 57.2606ZM114.348 65.9966C115.788 65.9966 117.18 64.4606 118.164 61.4126C115.14 60.8846 112.38 61.0526 112.092 63.3806C111.9 64.8206 112.788 65.9966 114.348 65.9966ZM127.405 58.9166C124.549 58.9166 122.773 56.3486 123.517 53.0366C124.069 50.7326 125.965 49.5566 127.573 49.2446C128.053 48.4286 128.821 47.8766 129.853 47.8766C131.701 47.8766 133.261 50.0846 132.829 53.3006C132.421 56.2766 130.021 58.9166 127.405 58.9166ZM127.045 51.1406V50.9726C126.613 51.5246 126.229 52.2686 126.037 53.2286C125.581 55.5326 126.229 57.2126 127.621 57.2126C129.157 57.2126 130.861 55.0286 131.125 51.7166C131.245 49.9166 130.717 48.9326 130.021 48.9326C129.493 48.9326 129.205 49.5086 129.253 50.5406C129.301 51.3086 129.469 51.9326 129.853 52.5806C130.285 53.2526 126.973 54.0686 127.045 51.1406ZM133.55 55.7246C133.622 53.9486 134.558 52.3406 134.558 50.2286C134.558 49.3166 134.342 48.8846 134.342 48.7886C134.342 48.6446 135.014 48.2606 135.734 48.2606C137.318 48.2606 137.99 49.3646 137.222 52.5326C136.55 55.3646 135.974 56.9006 136.694 56.9006C137.75 56.9006 139.358 54.0926 140.03 50.1326V50.1086C140.078 49.4366 140.054 49.0766 140.054 49.0046C140.054 48.8606 140.726 48.4766 141.446 48.4766C143.222 48.4766 143.294 49.5806 142.574 52.7486C141.878 55.7006 141.854 56.9246 142.502 57.1166C143.126 57.3086 143.966 56.7806 144.614 55.9166C144.878 55.5326 144.878 55.5086 145.094 55.7006C145.286 55.8686 145.502 56.3486 145.31 56.6606C144.182 58.1966 143.054 58.9406 141.734 58.9406C140.174 58.9406 139.502 57.5006 139.502 55.1966C138.47 57.3806 137.15 58.9406 135.734 58.9406C134.27 58.9406 133.478 57.7886 133.55 55.7246ZM154.52 56.6606C153.416 58.1966 152.192 58.9406 150.944 58.9406C148.808 58.9406 147.584 56.7566 149.072 51.9326C149.48 50.5646 149.816 50.0126 149.504 50.0126C149.336 50.0126 148.76 50.1086 148.064 50.1806C147.584 52.1486 146.576 55.0046 145.232 56.7566C145.016 57.0446 144.272 56.3726 144.464 56.0846C145.496 54.8126 146.264 52.4606 146.696 50.1806C146 50.1086 145.328 49.8926 144.992 49.3886C144.176 48.1886 146.024 45.9086 147.224 45.9086C147.944 45.9086 148.496 46.3646 148.352 48.4526L148.304 48.8126C149.384 48.7406 150.752 48.5966 151.328 48.5966C152.84 48.5966 152.504 49.4606 151.76 52.7486C151.112 55.7006 151.112 56.9246 151.736 57.1406C152.36 57.3326 153.2 56.7806 153.824 55.9166C154.112 55.5326 154.112 55.5086 154.328 55.7006C154.52 55.8686 154.736 56.3486 154.52 56.6606ZM163.117 46.2686C162.277 50.5886 172.501 51.5486 171.781 57.6446C171.421 60.6926 167.797 63.2126 163.285 62.9246C159.901 62.6846 157.429 60.2366 157.525 57.6926C157.621 55.3646 159.733 53.8046 161.173 53.7086C161.893 53.6846 162.685 53.9246 163.309 54.4286C163.885 54.9086 163.933 55.6286 163.429 55.5806C162.733 55.5086 161.845 55.8926 161.245 56.5886C159.877 58.1486 160.333 60.8846 163.381 61.2686C166.045 61.6046 169.093 60.0206 169.093 57.4766C169.093 53.9486 159.229 52.3166 160.357 46.5326C160.885 43.7726 164.437 41.5406 168.781 41.6846C172.837 41.8046 174.397 44.0126 174.397 45.4046C174.397 46.9166 172.813 47.8766 171.445 47.9246C170.821 47.9486 170.173 47.5406 170.509 47.2766C170.965 46.9406 171.301 46.2206 171.301 45.4286C171.301 44.0366 170.413 43.2206 168.757 43.0766C166.117 42.8606 163.525 44.1086 163.117 46.2686ZM173.849 47.6126C173.873 47.6126 174.161 47.6846 174.737 47.7566C174.905 46.8926 175.001 46.1246 175.001 45.5486C175.001 44.9726 174.929 44.7566 174.929 44.6606C174.953 44.5166 175.409 44.2766 176.105 44.2766C177.329 44.3006 178.241 44.9006 178.145 46.3886C178.097 46.8446 178.025 47.3246 177.905 47.8286C178.577 47.8046 178.937 47.7326 179.321 47.5886L179.561 47.4686C179.633 47.4686 179.921 47.6606 179.969 48.1406C180.017 48.6926 179.897 49.7486 178.697 49.7486C178.361 49.7486 177.953 49.7006 177.473 49.6046C177.089 50.9486 176.609 52.5566 176.153 54.5726C175.769 56.1806 176.009 56.9966 176.489 57.1406C177.089 57.3086 178.025 56.6126 178.601 55.8686C178.865 55.5326 179.105 55.7486 179.273 55.9166C179.465 56.0846 179.465 56.3726 179.249 56.6606C178.337 57.9326 176.993 58.9406 175.697 58.9406C174.209 58.9406 173.105 57.6206 173.321 55.3406C173.465 53.6606 174.089 51.0926 174.521 48.8846C174.041 48.6926 173.681 48.4286 173.633 48.0686C173.585 47.8286 173.729 47.6366 173.849 47.6126ZM178.785 55.7246C178.857 53.9486 179.793 52.3406 179.793 50.2286C179.793 49.3166 179.577 48.8846 179.577 48.7886C179.577 48.6446 180.249 48.2606 180.969 48.2606C182.553 48.2606 183.225 49.3646 182.457 52.5326C181.785 55.3646 181.209 56.9006 181.929 56.9006C182.985 56.9006 184.593 54.0926 185.265 50.1326V50.1086C185.313 49.4366 185.289 49.0766 185.289 49.0046C185.289 48.8606 185.961 48.4766 186.681 48.4766C188.457 48.4766 188.529 49.5806 187.809 52.7486C187.113 55.7006 187.089 56.9246 187.737 57.1166C188.361 57.3086 189.201 56.7806 189.849 55.9166C190.113 55.5326 190.113 55.5086 190.329 55.7006C190.521 55.8686 190.737 56.3486 190.545 56.6606C189.417 58.1966 188.289 58.9406 186.969 58.9406C185.409 58.9406 184.737 57.5006 184.737 55.1966C183.705 57.3806 182.385 58.9406 180.969 58.9406C179.505 58.9406 178.713 57.7886 178.785 55.7246ZM190.106 53.1806C191.09 49.4366 194.21 47.7326 197.234 47.8286C197.306 47.1806 197.402 46.4366 197.594 45.3566C198.122 42.4766 197.642 42.0926 197.642 41.9726C197.642 41.8286 198.338 41.4446 199.034 41.4446C200.642 41.4446 201.938 42.6206 201.002 45.7166C198.65 53.6126 198.17 56.8526 199.034 57.1406C199.634 57.3086 200.594 56.6126 201.17 55.8686C201.434 55.5326 201.65 55.7486 201.842 55.9166C202.034 56.0846 202.034 56.3726 201.818 56.6606C200.906 57.9326 199.562 58.9406 198.242 58.9406C196.922 58.9406 195.962 57.7406 195.818 55.7726C194.834 57.6446 193.658 58.9406 192.242 58.9406C190.25 58.9406 189.266 56.2286 190.106 53.1806ZM192.89 52.5566C192.218 54.7166 192.386 56.9006 193.202 56.9006C194.09 56.9006 195.362 55.3646 196.226 52.3886L196.298 52.1486L196.346 51.9806C196.346 51.9806 196.346 51.9566 196.37 51.9326C196.778 50.6366 196.97 49.7966 197.09 49.0286C195.218 48.8366 193.586 50.3006 192.89 52.5566ZM201.354 55.7246C201.402 53.9486 201.882 52.3406 201.882 50.2286C201.882 49.3166 201.666 48.8846 201.666 48.7886C201.666 48.6446 202.338 48.2606 203.058 48.2606C204.642 48.2606 205.29 49.3646 204.546 52.5326C203.85 55.3646 203.778 56.9006 204.498 56.9006C205.506 56.9006 207.378 53.7566 207.834 49.8206C207.858 49.3406 207.834 49.0766 207.834 49.0046C207.834 48.8606 208.53 48.4766 209.226 48.4766C211.002 48.4766 211.098 49.5566 210.426 52.7486C209.922 55.0526 209.562 56.4926 209.13 57.9326C209.994 57.4526 210.786 56.8046 211.458 55.9166C211.746 55.5326 211.746 55.5086 211.962 55.7006C212.154 55.8686 212.37 56.3486 212.154 56.6366C211.026 58.1726 209.874 58.9646 208.65 59.4926C208.602 59.6126 208.554 59.7566 208.53 59.8766C207.402 63.4286 205.722 65.7566 202.962 65.7566C200.97 65.7566 199.794 63.7166 200.514 62.1086C201.114 60.8126 202.722 60.0686 204.714 59.5166C205.266 59.3486 205.818 59.2046 206.346 59.0606C206.586 57.9806 206.826 56.9006 207.018 55.7966C206.01 57.6446 204.762 58.9406 203.538 58.9406C202.074 58.9406 201.282 57.7886 201.354 55.7246ZM203.034 63.7166C204.09 63.7166 205.338 62.5166 206.01 60.3806C205.602 60.5006 205.194 60.5966 204.786 60.7406C203.97 61.0046 202.554 61.3406 202.17 62.1326C201.786 62.9246 202.218 63.7166 203.034 63.7166ZM215.507 50.3726L215.459 50.7326C216.395 49.0046 217.859 47.8766 219.419 47.8766C221.195 47.8766 222.299 49.9406 221.579 53.1086C220.619 57.1886 217.907 59.1326 215.555 58.9406C214.955 58.8926 214.427 58.6046 214.019 58.1726C213.683 59.9726 213.395 61.8926 213.251 63.7166C213.203 64.5326 213.443 64.9406 213.443 65.0126C213.443 65.1806 212.747 65.5646 212.051 65.5646C210.755 65.5646 209.603 64.8926 209.747 63.1406C209.915 61.5326 211.163 57.8846 212.003 54.6446C212.627 52.2686 212.603 51.0206 212.603 49.9886C212.603 49.0766 212.387 48.8846 212.387 48.7886C212.387 48.6446 213.059 48.2606 213.779 48.2606C214.931 48.2606 215.627 48.8366 215.507 50.3726ZM216.035 55.5566C215.795 55.6046 215.075 55.1966 214.739 54.5006L214.667 54.8366C214.643 55.7726 214.907 57.2126 215.939 57.2126C217.019 57.2126 218.363 55.6286 219.011 53.2526C219.587 51.0686 219.515 49.1246 218.699 49.1246C217.763 49.1246 216.035 51.1166 216.011 53.6126C216.011 55.0286 216.515 55.4366 216.035 55.5566ZM228.572 51.9326C228.788 51.2606 231.404 52.5326 231.284 52.9886C230.564 55.4126 230.66 56.9486 231.236 57.1406C231.836 57.3326 232.796 56.5886 233.3 55.9166C233.588 55.5326 233.588 55.5086 233.804 55.7006C233.996 55.8686 234.212 56.3486 233.996 56.6366C233.084 57.9086 231.764 58.9406 230.468 58.9406C229.148 58.9406 228.188 57.7406 228.044 55.7726C227.06 57.6446 225.86 58.9406 224.444 58.9406C222.668 58.9406 221.563 56.8526 222.308 53.7086C223.244 49.6046 226.532 47.8766 228.908 47.8766C230.756 47.8766 231.884 48.8126 231.812 49.9406C231.764 50.8526 231.116 51.5006 229.868 51.4766C228.812 51.4526 227.828 50.8286 228.068 50.7326C229.364 50.1086 229.148 49.1246 228.212 49.1246C227.06 49.1246 225.692 50.6126 225.044 52.9886C224.468 55.1726 224.684 56.9006 225.404 56.9006C226.244 56.9006 227.468 55.5086 228.332 52.7966L228.572 51.9326ZM243.207 56.6606C242.103 58.1966 240.879 58.9406 239.631 58.9406C237.495 58.9406 236.271 56.7566 237.759 51.9326C238.167 50.5646 238.503 50.0126 238.191 50.0126C238.023 50.0126 237.447 50.1086 236.751 50.1806C236.271 52.1486 235.263 55.0046 233.919 56.7566C233.703 57.0446 232.959 56.3726 233.151 56.0846C234.183 54.8126 234.951 52.4606 235.383 50.1806C234.687 50.1086 234.015 49.8926 233.679 49.3886C232.863 48.1886 234.711 45.9086 235.911 45.9086C236.631 45.9086 237.183 46.3646 237.039 48.4526L236.991 48.8126C238.071 48.7406 239.439 48.5966 240.015 48.5966C241.527 48.5966 241.191 49.4606 240.447 52.7486C239.799 55.7006 239.799 56.9246 240.423 57.1406C241.047 57.3326 241.887 56.7806 242.511 55.9166C242.799 55.5326 242.799 55.5086 243.015 55.7006C243.207 55.8686 243.423 56.3486 243.207 56.6606ZM243.154 47.6126C243.178 47.6126 243.466 47.6846 244.042 47.7566C244.21 46.8926 244.306 46.1246 244.306 45.5486C244.306 44.9726 244.234 44.7566 244.234 44.6606C244.258 44.5166 244.714 44.2766 245.41 44.2766C246.634 44.3006 247.546 44.9006 247.45 46.3886C247.402 46.8446 247.33 47.3246 247.21 47.8286C247.882 47.8046 248.242 47.7326 248.626 47.5886L248.866 47.4686C248.938 47.4686 249.226 47.6606 249.274 48.1406C249.322 48.6926 249.202 49.7486 248.002 49.7486C247.666 49.7486 247.258 49.7006 246.778 49.6046C246.394 50.9486 245.914 52.5566 245.458 54.5726C245.074 56.1806 245.314 56.9966 245.794 57.1406C246.394 57.3086 247.33 56.6126 247.906 55.8686C248.17 55.5326 248.41 55.7486 248.578 55.9166C248.77 56.0846 248.77 56.3726 248.554 56.6606C247.642 57.9326 246.298 58.9406 245.002 58.9406C243.514 58.9406 242.41 57.6206 242.626 55.3406C242.77 53.6606 243.394 51.0926 243.826 48.8846C243.346 48.6926 242.986 48.4286 242.938 48.0686C242.89 47.8286 243.034 47.6366 243.154 47.6126ZM256.777 58.9406C254.641 58.9406 253.441 56.7566 254.929 51.9326C255.337 50.5646 256.129 49.2926 255.361 49.2926C254.233 49.2926 251.689 53.3246 250.105 58.5806C250.177 58.6766 249.841 58.9406 249.193 58.9406C248.353 58.9406 247.945 58.4366 247.969 57.3326C247.993 56.3006 248.809 51.8126 248.809 49.9886C248.809 49.0766 248.593 48.8846 248.593 48.7886C248.593 48.6446 249.265 48.2606 249.985 48.2606C251.545 48.2606 252.217 49.3646 251.497 52.4126C252.817 49.7246 254.281 47.8766 255.745 47.8766C257.905 47.8766 258.361 49.4606 257.617 52.7486C256.969 55.7006 256.921 56.9246 257.545 57.1166C258.193 57.3086 259.033 56.7806 259.657 55.9166C259.945 55.5326 259.945 55.5086 260.161 55.7006C260.353 55.8686 260.569 56.3486 260.353 56.6606C259.225 58.1966 258.097 58.9406 256.777 58.9406ZM269.598 56.6366C268.566 58.0286 266.958 59.2286 264.63 59.2286C261.678 59.2286 259.302 57.4046 259.662 53.9246C260.07 49.7486 263.742 47.5646 266.022 47.8766C267.894 48.1166 268.638 49.7486 268.302 51.3566C267.774 53.9006 265.134 55.0286 262.518 55.1486H262.422C262.71 56.6126 263.718 57.7166 265.398 57.7166C266.646 57.7166 268.014 57.0686 268.902 55.9166C269.166 55.5326 269.166 55.5086 269.382 55.7006C269.598 55.8686 269.79 56.3486 269.598 56.6366ZM262.422 53.2286C262.35 53.6366 262.326 54.0206 262.326 54.4046C264.102 53.8046 265.398 52.4366 265.71 51.0206C265.95 49.9166 265.734 49.1006 265.11 49.1006C263.982 49.1006 262.806 50.8766 262.422 53.2286ZM278.809 56.6606C277.705 58.1966 276.481 58.9406 275.233 58.9406C273.097 58.9406 271.873 56.7566 273.361 51.9326C273.769 50.5646 274.105 50.0126 273.793 50.0126C273.625 50.0126 273.049 50.1086 272.353 50.1806C271.873 52.1486 270.865 55.0046 269.521 56.7566C269.305 57.0446 268.561 56.3726 268.753 56.0846C269.785 54.8126 270.553 52.4606 270.985 50.1806C270.289 50.1086 269.617 49.8926 269.281 49.3886C268.465 48.1886 270.313 45.9086 271.513 45.9086C272.233 45.9086 272.785 46.3646 272.641 48.4526L272.593 48.8126C273.673 48.7406 275.041 48.5966 275.617 48.5966C277.129 48.5966 276.793 49.4606 276.049 52.7486C275.401 55.7006 275.401 56.9246 276.025 57.1406C276.649 57.3326 277.489 56.7806 278.113 55.9166C278.401 55.5326 278.401 55.5086 278.617 55.7006C278.809 55.8686 279.025 56.3486 278.809 56.6606Z" fill="url(#paint1_linear_1247_443)"/>
</g>
<defs>
<radialGradient id="paint0_radial_1247_443" cx="0" cy="0" r="1" gradientUnits="userSpaceOnUse" gradientTransform="translate(201.536 -16.1732) scale(185.455)">
<stop offset="0.1398" stop-color="#6BC1DB"/>
<stop offset="0.2473" stop-color="#8ACEE3"/>
<stop offset="0.4137" stop-color="#B4DFED"/>
<stop offset="0.5762" stop-color="#D5EDF5"/>
<stop offset="0.7313" stop-color="#ECF7FA"/>
<stop offset="0.876" stop-color="#FAFDFE"/>
<stop offset="1" stop-color="white"/>
</radialGradient>
<linearGradient id="paint1_linear_1247_443" x1="278.5" y1="52.9406" x2="109.5" y2="52.9406" gradientUnits="userSpaceOnUse">
<stop offset="0.0657991" stop-color="#1E293B"/>
<stop offset="0.5" stop-color="#5F9EA0"/>
<stop offset="1" stop-color="#1E293B"/>
</linearGradient>
<clipPath id="clip0_1247_443">
<rect width="169" height="32" fill="white" transform="translate(109.5 36.9406)"/>
</clipPath>
</defs>
</svg>
