<svg width="64" height="64" viewBox="0 0 64 64" fill="none" xmlns="http://www.w3.org/2000/svg">
<g opacity="0.8" filter="url(#filter0_d_1637_455)">
<circle cx="32" cy="32" r="28" fill="white"/>
</g>
<path d="M21.8771 28.9028C18.2201 29.7724 15.5 33.0606 15.5 36.9834C15.5 41.5706 19.2184 45.289 23.8056 45.289C24.5922 45.289 25.3538 45.1794 26.0756 44.9751M42.1238 28.9028C45.7807 29.7724 48.5 33.0606 48.5 36.9834C48.5 41.5706 44.7816 45.289 40.1944 45.289C39.4078 45.289 38.6462 45.1794 37.9252 44.9751M42.0781 28.6777C42.0781 23.1736 37.6154 18.7109 32.1113 18.7109C26.6071 18.7109 22.1445 23.1736 22.1445 28.6777M26.3513 35.2234L32.1113 29.4452L38.0349 35.3222M32.1113 43.6279V32.3837" stroke="#1E4640" stroke-width="2.5" stroke-linecap="round" stroke-linejoin="round"/>
<defs>
<filter id="filter0_d_1637_455" x="0" y="0" width="64" height="64" filterUnits="userSpaceOnUse" color-interpolation-filters="sRGB">
<feFlood flood-opacity="0" result="BackgroundImageFix"/>
<feColorMatrix in="SourceAlpha" type="matrix" values="0 0 0 0 0 0 0 0 0 0 0 0 0 0 0 0 0 0 127 0" result="hardAlpha"/>
<feOffset/>
<feGaussianBlur stdDeviation="2"/>
<feComposite in2="hardAlpha" operator="out"/>
<feColorMatrix type="matrix" values="0 0 0 0 0 0 0 0 0 0 0 0 0 0 0 0 0 0 0.25 0"/>
<feBlend mode="normal" in2="BackgroundImageFix" result="effect1_dropShadow_1637_455"/>
<feBlend mode="normal" in="SourceGraphic" in2="effect1_dropShadow_1637_455" result="shape"/>
</filter>
</defs>
</svg>
